<svg id="Layer_1" class="atom-svg" data-name="Layer 1" xmlns="http://www.w3.org/2000/svg" viewBox="0 0 209.51 229.52"><defs><style>.cls-1{fill:#decfa5;}</style></defs><title>atom</title><path class="cls-1" d="M104.76,229.52c-18,0-34.68-12.37-46.94-34.83-11.71-21.44-18.15-49.82-18.15-79.93s6.45-58.49,18.15-79.93C70.08,12.37,86.75,0,104.76,0s34.68,12.37,46.94,34.83c11.71,21.44,18.15,49.82,18.15,79.93s-6.45,58.49-18.15,79.93C139.43,217.15,122.76,229.52,104.76,229.52Zm0-218.82C90.85,10.71,77.51,21.1,67.21,40c-10.86,19.89-16.84,46.45-16.84,74.8s6,54.91,16.84,74.8c10.3,18.87,23.63,29.26,37.54,29.26S132,208.42,142.3,189.56c10.86-19.89,16.84-46.45,16.84-74.8s-6-54.91-16.84-74.8C132,21.1,118.66,10.71,104.76,10.71Z"/><circle class="cls-1" cx="104.76" cy="114.76" r="31.56"/><path class="cls-1" d="M153.13,195.41c-.87,0-1.74,0-2.62,0-24.42-.58-52.22-9.19-78.3-24.24s-47.43-34.83-60.14-55.69C-1.26,93.6-3.63,73,5.37,57.38S33.39,33.54,59,34.14c24.42.58,52.22,9.19,78.3,24.24s47.43,34.83,60.14,55.68c13.32,21.85,15.7,42.48,6.7,58.07C195.45,187.2,177.39,195.41,153.13,195.41ZM56.36,44.82c-20.26,0-35,6.32-41.72,17.91-7,12-4.62,28.79,6.57,47.14,11.8,19.35,31.81,37.81,56.35,52s50.54,22.27,73.2,22.81c21.48.52,37.15-5.84,44.11-17.88s4.62-28.79-6.56-47.14c-11.8-19.35-31.81-37.81-56.36-52h0C107.4,53.49,81.41,45.39,58.75,44.85Z"/><path class="cls-1" d="M56.38,195.41c-24.26,0-42.32-8.21-51-23.27-9-15.59-6.62-36.22,6.7-58.07C24.78,93.22,46.14,73.44,72.21,58.39s53.88-23.66,78.3-24.24c25.59-.61,44.63,7.64,53.64,23.24s6.63,36.22-6.7,58.07c-12.71,20.86-34.07,40.63-60.14,55.69h0C111.23,186.19,83.42,194.8,59,195.38Q57.68,195.41,56.38,195.41ZM153.15,44.82l-2.39,0c-22.66.54-48.65,8.64-73.2,22.81S33,100.3,21.21,119.65C10,138,7.69,154.74,14.64,166.79s22.62,18.41,44.11,17.88c22.66-.54,48.65-8.64,73.2-22.81s44.56-32.63,56.36-52c11.19-18.35,13.52-35.1,6.56-47.14C188.18,51.14,173.41,44.82,153.15,44.82Z"/></svg>
